<mxfile host="app.diagrams.net" modified="2020-07-20T22:53:56.069Z" agent="5.0 (Windows)" etag="7YhrADqBsF7_j04ITYyv" version="13.4.9" type="github">
  <diagram id="unekgs6rDZwSWhFbVp5t" name="Page-1">
    <mxGraphModel dx="1422" dy="791" grid="1" gridSize="10" guides="1" tooltips="1" connect="1" arrows="1" fold="1" page="1" pageScale="1" pageWidth="850" pageHeight="1100" math="0" shadow="0">
      <root>
        <mxCell id="0" />
        <mxCell id="1" parent="0" />
        <mxCell id="p-x26-pCPJ933fivSphl-71" style="edgeStyle=orthogonalEdgeStyle;rounded=0;orthogonalLoop=1;jettySize=auto;html=1;exitX=1;exitY=0.25;exitDx=0;exitDy=0;entryX=1;entryY=0.5;entryDx=0;entryDy=0;endArrow=ERoneToMany;endFill=0;" parent="1" source="l6Wv7LGstVZR9h47YhLv-12" target="l6Wv7LGstVZR9h47YhLv-19" edge="1">
          <mxGeometry relative="1" as="geometry" />
        </mxCell>
        <mxCell id="l6Wv7LGstVZR9h47YhLv-12" value="Inventory" style="swimlane;fontStyle=0;childLayout=stackLayout;horizontal=1;startSize=22;horizontalStack=0;resizeParent=1;resizeParentMax=0;resizeLast=0;collapsible=1;marginBottom=0;align=center;fontSize=14;fillColor=#0050ef;strokeColor=#001DBC;fontColor=#ffffff;" parent="1" vertex="1">
          <mxGeometry x="470" y="20" width="140" height="182" as="geometry" />
        </mxCell>
        <mxCell id="l6Wv7LGstVZR9h47YhLv-13" value="ItemId*" style="text;strokeColor=#10739e;fillColor=#b1ddf0;spacingLeft=4;spacingRight=4;overflow=hidden;rotatable=0;points=[[0,0.5],[1,0.5]];portConstraint=eastwest;fontSize=12;fontStyle=1" parent="l6Wv7LGstVZR9h47YhLv-12" vertex="1">
          <mxGeometry y="22" width="140" height="26" as="geometry" />
        </mxCell>
        <mxCell id="l6Wv7LGstVZR9h47YhLv-14" value="AccountId*" style="text;strokeColor=#10739e;fillColor=#b1ddf0;spacingLeft=4;spacingRight=4;overflow=hidden;rotatable=0;points=[[0,0.5],[1,0.5]];portConstraint=eastwest;fontSize=12;fontStyle=1" parent="l6Wv7LGstVZR9h47YhLv-12" vertex="1">
          <mxGeometry y="48" width="140" height="26" as="geometry" />
        </mxCell>
        <mxCell id="cApuXRFU2reZEmLTlbCV-1" value="ItemName" style="text;strokeColor=#10739e;fillColor=#b1ddf0;spacingLeft=4;spacingRight=4;overflow=hidden;rotatable=0;points=[[0,0.5],[1,0.5]];portConstraint=eastwest;fontSize=12;" vertex="1" parent="l6Wv7LGstVZR9h47YhLv-12">
          <mxGeometry y="74" width="140" height="30" as="geometry" />
        </mxCell>
        <mxCell id="l6Wv7LGstVZR9h47YhLv-15" value="Price" style="text;strokeColor=#10739e;fillColor=#b1ddf0;spacingLeft=4;spacingRight=4;overflow=hidden;rotatable=0;points=[[0,0.5],[1,0.5]];portConstraint=eastwest;fontSize=12;" parent="l6Wv7LGstVZR9h47YhLv-12" vertex="1">
          <mxGeometry y="104" width="140" height="26" as="geometry" />
        </mxCell>
        <mxCell id="l6Wv7LGstVZR9h47YhLv-16" value="Quantity" style="text;strokeColor=#10739e;fillColor=#b1ddf0;spacingLeft=4;spacingRight=4;overflow=hidden;rotatable=0;points=[[0,0.5],[1,0.5]];portConstraint=eastwest;fontSize=12;" parent="l6Wv7LGstVZR9h47YhLv-12" vertex="1">
          <mxGeometry y="130" width="140" height="26" as="geometry" />
        </mxCell>
        <mxCell id="l6Wv7LGstVZR9h47YhLv-17" value="Description" style="text;strokeColor=#10739e;fillColor=#b1ddf0;spacingLeft=4;spacingRight=4;overflow=hidden;rotatable=0;points=[[0,0.5],[1,0.5]];portConstraint=eastwest;fontSize=12;" parent="l6Wv7LGstVZR9h47YhLv-12" vertex="1">
          <mxGeometry y="156" width="140" height="26" as="geometry" />
        </mxCell>
        <mxCell id="p-x26-pCPJ933fivSphl-70" style="edgeStyle=orthogonalEdgeStyle;rounded=0;orthogonalLoop=1;jettySize=auto;html=1;exitX=1;exitY=0.5;exitDx=0;exitDy=0;entryX=0;entryY=0.5;entryDx=0;entryDy=0;endArrow=ERoneToMany;endFill=0;" parent="1" source="l6Wv7LGstVZR9h47YhLv-24" target="l6Wv7LGstVZR9h47YhLv-20" edge="1">
          <mxGeometry relative="1" as="geometry" />
        </mxCell>
        <mxCell id="l6Wv7LGstVZR9h47YhLv-18" value="OrderedItems" style="swimlane;fontStyle=0;childLayout=stackLayout;horizontal=1;startSize=26;horizontalStack=0;resizeParent=1;resizeParentMax=0;resizeLast=0;collapsible=1;marginBottom=0;align=center;fontSize=14;fillColor=#0050ef;strokeColor=#001DBC;fontColor=#ffffff;" parent="1" vertex="1">
          <mxGeometry x="590" y="480" width="160" height="104" as="geometry" />
        </mxCell>
        <mxCell id="l6Wv7LGstVZR9h47YhLv-19" value="ItemId*" style="text;strokeColor=#10739e;fillColor=#b1ddf0;spacingLeft=4;spacingRight=4;overflow=hidden;rotatable=0;points=[[0,0.5],[1,0.5]];portConstraint=eastwest;fontSize=12;fontStyle=1" parent="l6Wv7LGstVZR9h47YhLv-18" vertex="1">
          <mxGeometry y="26" width="160" height="26" as="geometry" />
        </mxCell>
        <mxCell id="l6Wv7LGstVZR9h47YhLv-20" value="OrderId*" style="text;strokeColor=#10739e;fillColor=#b1ddf0;spacingLeft=4;spacingRight=4;overflow=hidden;rotatable=0;points=[[0,0.5],[1,0.5]];portConstraint=eastwest;fontSize=12;fontStyle=1" parent="l6Wv7LGstVZR9h47YhLv-18" vertex="1">
          <mxGeometry y="52" width="160" height="26" as="geometry" />
        </mxCell>
        <mxCell id="l6Wv7LGstVZR9h47YhLv-21" value="Quantity" style="text;strokeColor=#10739e;fillColor=#b1ddf0;spacingLeft=4;spacingRight=4;overflow=hidden;rotatable=0;points=[[0,0.5],[1,0.5]];portConstraint=eastwest;fontSize=12;" parent="l6Wv7LGstVZR9h47YhLv-18" vertex="1">
          <mxGeometry y="78" width="160" height="26" as="geometry" />
        </mxCell>
        <mxCell id="l6Wv7LGstVZR9h47YhLv-23" value="Orders" style="swimlane;fontStyle=0;childLayout=stackLayout;horizontal=1;startSize=26;horizontalStack=0;resizeParent=1;resizeParentMax=0;resizeLast=0;collapsible=1;marginBottom=0;align=center;fontSize=14;fillColor=#0050ef;strokeColor=#001DBC;fontColor=#ffffff;" parent="1" vertex="1">
          <mxGeometry x="150" y="480" width="160" height="104" as="geometry" />
        </mxCell>
        <mxCell id="l6Wv7LGstVZR9h47YhLv-24" value="OrderId*" style="text;strokeColor=#10739e;fillColor=#b1ddf0;spacingLeft=4;spacingRight=4;overflow=hidden;rotatable=0;points=[[0,0.5],[1,0.5]];portConstraint=eastwest;fontSize=12;fontStyle=1" parent="l6Wv7LGstVZR9h47YhLv-23" vertex="1">
          <mxGeometry y="26" width="160" height="26" as="geometry" />
        </mxCell>
        <mxCell id="l6Wv7LGstVZR9h47YhLv-27" value="CustomerId*" style="text;strokeColor=#10739e;fillColor=#b1ddf0;spacingLeft=4;spacingRight=4;overflow=hidden;rotatable=0;points=[[0,0.5],[1,0.5]];portConstraint=eastwest;fontSize=12;fontStyle=1" parent="l6Wv7LGstVZR9h47YhLv-23" vertex="1">
          <mxGeometry y="52" width="160" height="26" as="geometry" />
        </mxCell>
        <mxCell id="l6Wv7LGstVZR9h47YhLv-29" value="DateOrdered" style="text;strokeColor=#10739e;fillColor=#b1ddf0;spacingLeft=4;spacingRight=4;overflow=hidden;rotatable=0;points=[[0,0.5],[1,0.5]];portConstraint=eastwest;fontSize=12;" parent="l6Wv7LGstVZR9h47YhLv-23" vertex="1">
          <mxGeometry y="78" width="160" height="26" as="geometry" />
        </mxCell>
        <mxCell id="vdTxBb5qW8Bdh_h2SQRC-1" style="edgeStyle=orthogonalEdgeStyle;rounded=0;orthogonalLoop=1;jettySize=auto;html=1;exitX=1;exitY=0.25;exitDx=0;exitDy=0;entryX=0;entryY=0.5;entryDx=0;entryDy=0;endArrow=ERoneToMany;endFill=0;" parent="1" source="p-x26-pCPJ933fivSphl-18" target="l6Wv7LGstVZR9h47YhLv-14" edge="1">
          <mxGeometry relative="1" as="geometry" />
        </mxCell>
        <mxCell id="vdTxBb5qW8Bdh_h2SQRC-4" style="edgeStyle=orthogonalEdgeStyle;rounded=0;orthogonalLoop=1;jettySize=auto;html=1;exitX=0;exitY=0.25;exitDx=0;exitDy=0;entryX=0;entryY=0.25;entryDx=0;entryDy=0;endArrow=ERoneToMany;endFill=0;" parent="1" source="p-x26-pCPJ933fivSphl-18" target="l6Wv7LGstVZR9h47YhLv-23" edge="1">
          <mxGeometry relative="1" as="geometry" />
        </mxCell>
        <mxCell id="p-x26-pCPJ933fivSphl-18" value="Account" style="swimlane;fontStyle=0;childLayout=stackLayout;horizontal=1;startSize=22;horizontalStack=0;resizeParent=1;resizeParentMax=0;resizeLast=0;collapsible=1;marginBottom=0;align=center;fontSize=14;fillColor=#0050ef;strokeColor=#001DBC;fontColor=#ffffff;" parent="1" vertex="1">
          <mxGeometry x="260" y="160" width="140" height="156" as="geometry" />
        </mxCell>
        <mxCell id="p-x26-pCPJ933fivSphl-19" value="AccountId*" style="text;strokeColor=#10739e;fillColor=#b1ddf0;spacingLeft=4;spacingRight=4;overflow=hidden;rotatable=0;points=[[0,0.5],[1,0.5]];portConstraint=eastwest;fontSize=12;fontStyle=1" parent="p-x26-pCPJ933fivSphl-18" vertex="1">
          <mxGeometry y="22" width="140" height="26" as="geometry" />
        </mxCell>
        <mxCell id="p-x26-pCPJ933fivSphl-21" value="Username" style="text;strokeColor=#10739e;fillColor=#b1ddf0;spacingLeft=4;spacingRight=4;overflow=hidden;rotatable=0;points=[[0,0.5],[1,0.5]];portConstraint=eastwest;fontSize=12;" parent="p-x26-pCPJ933fivSphl-18" vertex="1">
          <mxGeometry y="48" width="140" height="26" as="geometry" />
        </mxCell>
        <mxCell id="p-x26-pCPJ933fivSphl-22" value="Email" style="text;strokeColor=#10739e;fillColor=#b1ddf0;spacingLeft=4;spacingRight=4;overflow=hidden;rotatable=0;points=[[0,0.5],[1,0.5]];portConstraint=eastwest;fontSize=12;" parent="p-x26-pCPJ933fivSphl-18" vertex="1">
          <mxGeometry y="74" width="140" height="26" as="geometry" />
        </mxCell>
        <mxCell id="p-x26-pCPJ933fivSphl-23" value="HashPass" style="text;strokeColor=#10739e;fillColor=#b1ddf0;spacingLeft=4;spacingRight=4;overflow=hidden;rotatable=0;points=[[0,0.5],[1,0.5]];portConstraint=eastwest;fontSize=12;" parent="p-x26-pCPJ933fivSphl-18" vertex="1">
          <mxGeometry y="100" width="140" height="26" as="geometry" />
        </mxCell>
        <mxCell id="cApuXRFU2reZEmLTlbCV-2" value="Salt&#xa;" style="text;strokeColor=#10739e;fillColor=#b1ddf0;spacingLeft=4;spacingRight=4;overflow=hidden;rotatable=0;points=[[0,0.5],[1,0.5]];portConstraint=eastwest;fontSize=12;" vertex="1" parent="p-x26-pCPJ933fivSphl-18">
          <mxGeometry y="126" width="140" height="30" as="geometry" />
        </mxCell>
        <mxCell id="vdTxBb5qW8Bdh_h2SQRC-2" style="edgeStyle=orthogonalEdgeStyle;rounded=0;orthogonalLoop=1;jettySize=auto;html=1;exitX=1;exitY=0.5;exitDx=0;exitDy=0;entryX=0;entryY=0.5;entryDx=0;entryDy=0;endArrow=ERoneToMany;endFill=0;" parent="1" source="p-x26-pCPJ933fivSphl-19" target="p-x26-pCPJ933fivSphl-11" edge="1">
          <mxGeometry relative="1" as="geometry" />
        </mxCell>
        <mxCell id="vdTxBb5qW8Bdh_h2SQRC-3" style="edgeStyle=orthogonalEdgeStyle;rounded=0;orthogonalLoop=1;jettySize=auto;html=1;exitX=0;exitY=0.5;exitDx=0;exitDy=0;endArrow=ERoneToMany;endFill=0;" parent="1" source="p-x26-pCPJ933fivSphl-19" target="p-x26-pCPJ933fivSphl-4" edge="1">
          <mxGeometry relative="1" as="geometry">
            <mxPoint x="240" y="390" as="targetPoint" />
            <Array as="points">
              <mxPoint x="240" y="195" />
              <mxPoint x="240" y="330" />
              <mxPoint x="390" y="330" />
              <mxPoint x="390" y="425" />
            </Array>
          </mxGeometry>
        </mxCell>
        <mxCell id="p-x26-pCPJ933fivSphl-1" value="Reviews" style="swimlane;fontStyle=0;childLayout=stackLayout;horizontal=1;startSize=26;horizontalStack=0;resizeParent=1;resizeParentMax=0;resizeLast=0;collapsible=1;marginBottom=0;align=center;fontSize=14;fillColor=#0050ef;strokeColor=#001DBC;fontColor=#ffffff;" parent="1" vertex="1">
          <mxGeometry x="210" y="360" width="160" height="104" as="geometry" />
        </mxCell>
        <mxCell id="p-x26-pCPJ933fivSphl-2" value="ReviewId*" style="text;strokeColor=#10739e;fillColor=#b1ddf0;spacingLeft=4;spacingRight=4;overflow=hidden;rotatable=0;points=[[0,0.5],[1,0.5]];portConstraint=eastwest;fontSize=12;fontStyle=1" parent="p-x26-pCPJ933fivSphl-1" vertex="1">
          <mxGeometry y="26" width="160" height="26" as="geometry" />
        </mxCell>
        <mxCell id="p-x26-pCPJ933fivSphl-4" value="AccountID*" style="text;strokeColor=#10739e;fillColor=#b1ddf0;spacingLeft=4;spacingRight=4;overflow=hidden;rotatable=0;points=[[0,0.5],[1,0.5]];portConstraint=eastwest;fontSize=12;verticalAlign=top;fontStyle=1" parent="p-x26-pCPJ933fivSphl-1" vertex="1">
          <mxGeometry y="52" width="160" height="26" as="geometry" />
        </mxCell>
        <mxCell id="p-x26-pCPJ933fivSphl-3" value="Rating" style="text;strokeColor=#10739e;fillColor=#b1ddf0;spacingLeft=4;spacingRight=4;overflow=hidden;rotatable=0;points=[[0,0.5],[1,0.5]];portConstraint=eastwest;fontSize=12;" parent="p-x26-pCPJ933fivSphl-1" vertex="1">
          <mxGeometry y="78" width="160" height="26" as="geometry" />
        </mxCell>
        <mxCell id="p-x26-pCPJ933fivSphl-10" value="CustomerAddress" style="swimlane;fontStyle=0;childLayout=stackLayout;horizontal=1;startSize=22;horizontalStack=0;resizeParent=1;resizeParentMax=0;resizeLast=0;collapsible=1;marginBottom=0;align=center;fontSize=14;fillColor=#0050ef;strokeColor=#001DBC;fontColor=#ffffff;" parent="1" vertex="1">
          <mxGeometry x="470" y="240" width="140" height="204" as="geometry" />
        </mxCell>
        <mxCell id="p-x26-pCPJ933fivSphl-11" value="AccountId*" style="text;strokeColor=#10739e;fillColor=#b1ddf0;spacingLeft=4;spacingRight=4;overflow=hidden;rotatable=0;points=[[0,0.5],[1,0.5]];portConstraint=eastwest;fontSize=12;fontStyle=1" parent="p-x26-pCPJ933fivSphl-10" vertex="1">
          <mxGeometry y="22" width="140" height="26" as="geometry" />
        </mxCell>
        <mxCell id="p-x26-pCPJ933fivSphl-39" value="AddressId*" style="text;strokeColor=#0e8088;fillColor=#b0e3e6;spacingLeft=4;spacingRight=4;overflow=hidden;rotatable=0;points=[[0,0.5],[1,0.5]];portConstraint=eastwest;fontSize=12;fontStyle=1" parent="p-x26-pCPJ933fivSphl-10" vertex="1">
          <mxGeometry y="48" width="140" height="26" as="geometry" />
        </mxCell>
        <mxCell id="p-x26-pCPJ933fivSphl-12" value="Line1" style="text;strokeColor=#10739e;fillColor=#b1ddf0;spacingLeft=4;spacingRight=4;overflow=hidden;rotatable=0;points=[[0,0.5],[1,0.5]];portConstraint=eastwest;fontSize=12;" parent="p-x26-pCPJ933fivSphl-10" vertex="1">
          <mxGeometry y="74" width="140" height="26" as="geometry" />
        </mxCell>
        <mxCell id="p-x26-pCPJ933fivSphl-14" value="Line2" style="text;strokeColor=#10739e;fillColor=#b1ddf0;spacingLeft=4;spacingRight=4;overflow=hidden;rotatable=0;points=[[0,0.5],[1,0.5]];portConstraint=eastwest;fontSize=12;" parent="p-x26-pCPJ933fivSphl-10" vertex="1">
          <mxGeometry y="100" width="140" height="26" as="geometry" />
        </mxCell>
        <mxCell id="p-x26-pCPJ933fivSphl-15" value="City" style="text;strokeColor=#10739e;fillColor=#b1ddf0;spacingLeft=4;spacingRight=4;overflow=hidden;rotatable=0;points=[[0,0.5],[1,0.5]];portConstraint=eastwest;fontSize=12;" parent="p-x26-pCPJ933fivSphl-10" vertex="1">
          <mxGeometry y="126" width="140" height="26" as="geometry" />
        </mxCell>
        <mxCell id="p-x26-pCPJ933fivSphl-16" value="State" style="text;strokeColor=#10739e;fillColor=#b1ddf0;spacingLeft=4;spacingRight=4;overflow=hidden;rotatable=0;points=[[0,0.5],[1,0.5]];portConstraint=eastwest;fontSize=12;" parent="p-x26-pCPJ933fivSphl-10" vertex="1">
          <mxGeometry y="152" width="140" height="26" as="geometry" />
        </mxCell>
        <mxCell id="p-x26-pCPJ933fivSphl-37" value="Zip" style="text;strokeColor=#10739e;fillColor=#b1ddf0;spacingLeft=4;spacingRight=4;overflow=hidden;rotatable=0;points=[[0,0.5],[1,0.5]];portConstraint=eastwest;fontSize=12;" parent="p-x26-pCPJ933fivSphl-10" vertex="1">
          <mxGeometry y="178" width="140" height="26" as="geometry" />
        </mxCell>
      </root>
    </mxGraphModel>
  </diagram>
</mxfile>
